<svg width="531" height="358" viewBox="0 0 531 358" fill="none" xmlns="http://www.w3.org/2000/svg">
<g clip-path="url(#clip0_594_12)">
<path opacity="0.1" d="M142.005 41.7354C146.042 17.6465 166.893 0 191.317 0H481C508.614 0 531 22.3858 531 50V308C531 335.614 508.614 358 481 358H148.077C117.162 358 93.655 330.225 98.765 299.735L142.005 41.7354Z" fill="#68C9BA"/>
<path d="M499.014 94.0295C524.738 123.207 494.363 151.381 440.903 152.141C334.616 145.137 310.631 51.0074 318.664 29.9028C326.697 8.79815 350.615 8.2221 386.054 51.2151C421.493 94.2081 466.858 57.5572 499.014 94.0295Z" stroke="white" stroke-width="1.5"/>
<ellipse cx="394.634" cy="59.1502" rx="16.8481" ry="9.95569" transform="rotate(20.7184 394.634 59.1502)" stroke="white" stroke-width="1.5"/>
</g>
<defs>
<clipPath id="clip0_594_12">
<rect width="531" height="358" fill="white"/>
</clipPath>
</defs>
</svg>
